#!OML:ASF E:/inclinewalkrobotboard/Project1/Captureday1/Session1/subject1.ASF
:FULLY-SPECIFIED
:DEGREES
63
root 0 0 0 -0.8356037010842334 -6.270227303088312 -7.389377476726766
lowerback 10.46572636097898 2.063476051010934 6.504971217076988
upperback 0.7512669831533701 3.588470453257192 1.9679396521508894
thorax -4.855976454264919 1.632996692040478 -2.1164218248249806
lowerneck -18.00869328079036 -3.0243772380739515 -1.8097924209952603
upperneck 18.485625190472067 -3.7908649776611947 0.2982517469967323
head 8.716113125287574 -1.8604247344640654 -0.1014208117851666
rclavicle -7.589357461710166E-15 6.953030885908411E-16
rhumerus -29.831198445096913 -14.948238398101422 -81.09752049156856
rradius 26.211617969633494
rwrist 2.4721299111497315
rhand -18.78522737626082 26.487000211296497
rfingers 7.12502000000001
rthumb 7.510317294839594 -3.3733329532578296
lclavicle -8.01832122631385E-15 1.6445687385217207E-16
lhumerus -34.060440881582586 1.884261753153987 84.44026971513055
lradius 25.04676838703556
lwrist 5.599093739183257
lhand -27.564979515167444 24.727398612271667
lfingers 7.12502000000003
lthumb -0.9682061475778134 54.73201511963593
rfemur 6.2367995630782405 8.767501928212708 36.09697036347961
rtibia 24.077285363616333
rfoot -21.340699116465043 -5.098541812556996
rtoes -1.341466262765566
lfemur -26.635766234179712 -4.329678945737556 -12.654114172001094
ltibia 21.32670623033838
lfoot -5.09853030881691 3.847084164808754
ltoes 0.355325713329286
64
root 0 0 0 -0.9414452830646676 -6.27519355041618 -7.209573567907462
lowerback 10.37791657010637 2.119064711490563 6.3621760203344655
upperback 0.7225992108802363 3.640242983191918 1.9073005235504294
thorax -4.839640595866746 1.6628425740138781 -2.102732059425987
lowerneck -18.012620413338194 -3.0407086237140546 -1.83424750753273
upperneck 18.489053585494922 -3.822248141768681 0.35955386326464156
head 8.720085320285715 -1.870367693668288 -0.08075554820852798
rclavicle -8.621063978162356E-15 -1.2737243691614313E-15
rhumerus -30.145167891231644 -15.639816491052903 -80.81144355510466
rradius 25.606718433725405
rwrist 2.847649596677708
rhand -18.723034825581696 26.416638890421368
rfingers 7.125020000000011
rthumb 7.570489722966135 -3.4347430382035284
lclavicle -9.256507333317014E-15 -1.8662801597146627E-15
lhumerus -35.18992553175119 3.1685883510757678 83.87920610593663
lradius 24.137408117678234
lwrist 4.832526804409438
lhand -27.307723146461214 24.421303567100342
lfingers 7.125020000000032
lthumb -0.7186502254276119 54.420951917284185
rfemur 9.021562020713983 8.714973534096409 36.39071579051368
rtibia 25.626288379680723
rfoot -19.931430720346683 -4.052783601000915
rtoes -5.145750771114187
lfemur -26.542086991032132 -4.342815543837093 -12.92592590550582
ltibia 21.51699759979178
lfoot -4.935645834214808 3.4090879577704998
ltoes 0.34936649146639454
65
root 0 0 0 -1.56373473341556 -6.218730612749443 -6.362770328485979
lowerback 10.418039840665902 2.148583781112458 5.6506434467261695
upperback 0.5943438420942594 3.6066686200355793 1.786404531426443
thorax -5.014950781425425 1.6642585462925419 -1.8171440789568276
lowerneck -18.15171495174951 -3.2033089661558 -1.9361319776136705
upperneck 19.448324288228385 -4.0764202971621994 0.49653002778465694
head 9.101761616572222 -1.9672567484623271 -0.05638220002207284
rclavicle -7.949103293625273E-15 -1.8830623440493298E-15
rhumerus -31.08514771040423 -17.279175447547857 -80.26492417839174
rradius 24.056913062837275
rwrist 4.146333103295288
rhand -18.520817408166412 26.276847568184586
rfingers 7.125020000000014
rthumb 7.765096692336046 -3.566200289522982
lclavicle -9.100843645195338E-15 -2.3585468106677193E-15
lhumerus -37.94042128348463 6.497125786538004 81.55414502133914
lradius 22.24711345934849
lwrist 2.8245010610217354
lhand -26.356547937149152 23.952565504776885
lfingers 7.125020000000026
lthumb 0.1984975777738356 53.93093624539449
rfemur 6.887482273226394 5.643415801719186 30.55904857425756
rtibia 36.45144793374315
rfoot -11.169204075924966 -1.4300867953868999
rtoes -4.696436445059418
lfemur -26.235971429835516 -3.3989299598347755 -13.956869789104797
ltibia 22.39090640417274
lfoot -4.716150834165415 2.0597181316368074
ltoes 0.39520558035984976
66
root 0 0 0 -2.4163773057271696 -6.134489924414671 -4.458617269420232
lowerback 10.654702314355596 2.1421514310589522 4.03183834015504
upperback 0.3922362604065421 3.4047486722165043 1.3977176658935924
thorax -5.417281442014975 1.6000995376045408 -1.2904000739016932
lowerneck -17.638458512161158 -3.352258154929391 -1.925349155492973
upperneck 19.04561264682799 -4.263357909137299 0.6250518760642313
head 8.889638165588917 -2.061776472265794 -0.027305100523288828
rclavicle -5.600350326700786E-15 -1.846586946161136E-15
rhumerus -31.80857206693119 -18.68438302146371 -79.7605644207683
rradius 22.794051102279326
rwrist 5.128320631035202
rhand -18.328559511230683 26.183245697657114
rfingers 7.125020000000018
rthumb 7.950190190492691 -3.648464761295095
lclavicle -6.3473272183342644E-15 -2.385301236273997E-15
lhumerus -38.96760000855046 8.077848061014304 80.23981983814951
lradius 21.438348761364967
lwrist 2.1689518815229745
lhand -26.084854899448718 24.059748217396354
lfingers 7.125020000000023
lthumb 0.45755505429590926 54.030954567134486
rfemur -3.1651486302909353 3.1451522964918217 24.135690695075574
rtibia 49.85795498722176
rfoot 3.8942530970922196 -0.3113422664540666
rtoes 1.7458188317443883
lfemur -25.422892549929447 -2.5741328261304144 -14.935794857051752
ltibia 23.12754390027544
lfoot -4.928927458207287 1.1228266088232397
ltoes 0.40488848390863197
